<?xml version="1.0" encoding="UTF-8"?>
<svg version="1.1" xmlns="http://www.w3.org/2000/svg" width="612" height="650">
<path d="M0 0 C1.44921875 1.37109375 1.44921875 1.37109375 2.6875 3.4375 C3.18894531 4.25734375 3.69039063 5.0771875 4.20703125 5.921875 C4.79871094 6.93765625 5.39039063 7.9534375 6 9 C6.77378836 10.29744278 7.54860074 11.59427516 8.32421875 12.890625 C12.92702606 20.62273365 17.41076087 28.42190644 21.8203125 36.265625 C27.37271905 45.90084872 33.39485951 55.215412 39.60977173 64.43338013 C45.31260039 72.89398274 50.93534193 81.38972356 56.3125 90.0625 C61.68056948 98.69187587 67.54785335 106.9069045 73.58251953 115.08007812 C75.46338347 117.62763479 77.32608331 120.18821124 79.1875 122.75 C79.80496094 123.59433594 80.42242187 124.43867188 81.05859375 125.30859375 C82.4873846 127.28935209 83.89366079 129.27855851 85.28515625 131.28515625 C90.04364004 138.11478898 95.04824421 144.54485581 100.52929688 150.81079102 C104.79678206 155.70370718 108.75906382 160.78390152 112.68359375 165.953125 C114.86652831 168.82443858 117.07414655 171.67172536 119.3125 174.5 C119.90675781 175.2528125 120.50101563 176.005625 121.11328125 176.78125 C123.28340166 179.33327566 125.62064538 181.64086652 128 184 C130.62243823 186.73280716 133.21773142 189.49093649 135.8125 192.25 C136.52664063 193.00780762 137.24078125 193.76561523 137.9765625 194.54638672 C141.55171165 198.35111012 145.07989814 202.17925374 148.5 206.125 C151.37348053 209.39826913 154.42533578 212.25253502 157.74609375 215.06640625 C160.49119807 217.42139176 163.15256563 219.86254931 165.8125 222.3125 C166.32449951 222.78196045 166.83649902 223.2514209 167.36401367 223.73510742 C169.86351956 226.02779007 172.35238528 228.32999616 174.828125 230.6484375 C179.97298377 235.42580636 185.20563292 239.71038945 190.94140625 243.75390625 C194.61862341 246.45428922 198.11126707 249.34224451 201.625 252.25 C213.5187063 262.03103649 226.18302971 270.62904041 239.19140625 278.84619141 C241.09714815 280.06197653 242.98718943 281.29953709 244.875 282.54296875 C261.35318739 293.37821204 278.18193748 303.5247418 296 312 C300.13451871 313.97305277 304.26748391 315.94930207 308.39907837 317.9284668 C310.21797765 318.79720555 312.03999533 319.65940553 313.86206055 320.52148438 C314.98523682 321.05708984 316.10841309 321.59269531 317.265625 322.14453125 C318.27399414 322.62253174 319.28236328 323.10053223 320.32128906 323.59301758 C322.76935414 324.87885417 324.85065968 326.26972351 327 328 C327 330.6875 327 330.6875 326 334 C320.90023842 338.23935211 314.34690167 340.85770627 308.375 343.625 C300.71745122 347.22108288 293.1228797 350.91976511 285.5703125 354.73046875 C284.74373138 355.14695679 283.91715027 355.56344482 283.06552124 355.99255371 C279.72835977 357.67511544 276.39168555 359.35847836 273.06121826 361.05426025 C264.09884837 365.6170749 255.1874425 369.87573269 245.80175781 373.50463867 C241.5929441 375.13779557 237.45719139 376.92801595 233.3203125 378.734375 C232.57783264 379.05820663 231.83535278 379.38203827 231.07037354 379.71568298 C229.54069062 380.38351771 228.01121351 381.05182401 226.48193359 381.72058105 C214.70900654 386.8625478 202.91941986 391.95540917 191 396.75 C190.06043457 397.13124023 189.12086914 397.51248047 188.15283203 397.90527344 C182.37659528 400.20081079 176.54620072 402.11868302 170.59423828 403.90576172 C166.60654483 405.11978441 162.64558492 406.40441039 158.68359375 407.69921875 C127.960903 417.68464054 97.01021225 426.26889708 65 431 C63.8027832 431.17813232 62.60556641 431.35626465 61.37207031 431.53979492 C56.06151122 432.18718198 50.75021443 432.20054008 45.40625 432.23828125 C44.30132202 432.246353 43.19639404 432.25442474 42.0579834 432.26274109 C39.72486918 432.27652199 37.39173531 432.28727072 35.05859375 432.29516602 C32.70045963 432.30665254 30.34235083 432.32705101 27.984375 432.35668945 C2.46005456 432.67681651 -16.70484298 429.13760714 -35.984375 411.1484375 C-38.87246392 408.14111555 -40 406.91132661 -40 402.625 C-39 400 -39 400 -37 399 C-29.00052392 398.58638573 -21.1501415 399.70720065 -13.22406006 400.65322876 C60.14579944 409.30196255 128.45974725 397.5111478 197.59703064 373.23751831 C201.82883832 371.75249118 206.06778423 370.29623285 210.32421875 368.8828125 C236.00239947 360.31288058 260.86029497 349.28280751 285.4934082 338.10644531 C287.97447663 337.01126638 290.4759619 335.99159651 293 335 C286.93690848 331.90138098 280.81850059 328.98559923 274.60229492 326.20776367 C263.07713966 321.04861463 251.99113384 315.37351641 241.01806641 309.13378906 C238.49977325 307.71896286 235.93866138 306.39295856 233.375 305.0625 C219.86183039 297.6935997 207.34282206 288.25704326 194.84228516 279.31494141 C193.21644517 278.15448896 191.58337028 277.0041873 189.94921875 275.85546875 C183.23080541 271.08160341 176.95172586 265.85858536 170.71777344 260.47949219 C168.95536216 258.96155411 167.18568544 257.4524855 165.4140625 255.9453125 C164.21341649 254.92202186 163.01289253 253.89858798 161.8125 252.875 C161.27906982 252.42092773 160.74563965 251.96685547 160.19604492 251.49902344 C150.83671834 243.48604682 141.91297532 235.09948708 133.2043457 226.38964844 C131.44175477 224.62924948 129.67128961 222.87703618 127.90039062 221.125 C121.13128119 214.3891476 114.93399613 207.49046655 109 200 C107.00320157 197.62477257 104.97091007 195.28138925 102.9375 192.9375 C94.91545082 183.604824 87.5744765 174.06129607 80.66015625 163.8828125 C78.48284044 160.68529081 76.23644817 157.54920762 73.9375 154.4375 C66.91371376 144.84788164 60.44670398 134.91824203 54.39257812 124.69189453 C51.68700741 120.12298637 48.89539292 115.6159167 46.0625 111.125 C41.64125557 104.10114852 37.40997839 96.97678382 33.234375 89.8046875 C31.54803515 86.91321793 29.79129299 84.0778277 28 81.25 C24.52402962 75.49902653 21.79831361 69.37044637 18.953125 63.29174805 C16.12993092 57.28668399 13.14523669 51.40445037 10 45.5625 C6.28803088 38.62340237 2.84252736 31.59112373 -0.4375 24.4375 C-0.85064453 23.54554932 -1.26378906 22.65359863 -1.68945312 21.73461914 C-8.72472358 6.17417074 -8.72472358 6.17417074 -7 1 C-4.44515024 -0.27742488 -2.83066896 -0.30872119 0 0 Z " fill="#005CB9" transform="translate(267,208)"/>
<path d="M0 0 C2.17716082 -0.00435094 4.35225203 -0.04068735 6.52905273 -0.07861328 C27.02887539 -0.24755145 41.59954375 8.37819999 56.01147461 22.37060547 C56.72303711 23.00869141 57.43459961 23.64677734 58.16772461 24.30419922 C69.26449333 34.61695711 77.90567452 48.14612995 84.98852539 61.45263672 C86.14543549 63.62177414 87.32702374 65.77674529 88.50756836 67.93310547 C89.38527758 69.55734587 90.26159099 71.18234134 91.13647461 72.80810547 C91.5324585 73.53441162 91.92844238 74.26071777 92.33642578 75.0090332 C95.83591263 81.61435977 98.55357905 88.49907362 101.26275635 95.45327759 C102.42687269 98.43436252 103.61457571 101.4059686 104.80053711 104.37841797 C105.49107178 106.11260986 105.49107178 106.11260986 106.19555664 107.88183594 C112.20575655 122.95519734 118.35132241 137.96656712 124.59301758 152.94580078 C125.96821297 156.26615207 127.32311805 159.59402841 128.67163086 162.92529297 C132.90732633 173.34084464 137.39256372 183.38415758 142.80053711 193.24169922 C145.20598256 197.6566364 147.33118376 202.1873481 149.44897461 206.74560547 C157.49446245 223.97788502 166.15627734 241.49690993 177.30053711 256.95263672 C179.10413412 259.50155578 180.78365236 262.1044496 182.44897461 264.74560547 C183.63628795 266.62072367 184.82378953 268.4957227 186.01147461 270.37060547 C186.58124023 271.27166016 187.15100586 272.17271484 187.73803711 273.10107422 C196.85138321 287.15889534 207.43536392 301.1375059 218.89038086 313.37841797 C219.4459668 313.97396484 220.00155273 314.56951172 220.57397461 315.18310547 C221.04963867 315.66392578 221.52530273 316.14474609 222.01538086 316.64013672 C223.59267151 319.38029263 223.40374847 321.25504577 223.01147461 324.37060547 C221.74345735 326.82325564 220.50305473 328.9326803 218.94897461 331.18310547 C218.54066406 331.79404053 218.13235352 332.40497559 217.71166992 333.03442383 C212.98800629 340.02681037 208.01750304 346.43244177 202.01147461 352.37060547 C200.83270766 353.58120798 199.65576411 354.79358748 198.48022461 356.00732422 C185.25915741 369.56033595 171.35410317 379.87295981 155.01147461 389.37060547 C154.02606689 389.94681641 154.02606689 389.94681641 153.02075195 390.53466797 C141.85136771 397.01203708 141.85136771 397.01203708 137.01147461 396.37060547 C135.01147461 394.37060547 135.01147461 394.37060547 134.46850586 391.60107422 C135.26657347 386.85285899 137.91793329 385.38384927 141.69897461 382.68310547 C142.32481445 382.21066406 142.9506543 381.73822266 143.59545898 381.25146484 C146.19344163 379.31181916 148.78282004 377.50529241 151.57788086 375.85888672 C154.72110643 373.93662518 157.47528326 371.64059052 160.26147461 369.24560547 C160.85702148 368.73570068 161.45256836 368.2257959 162.06616211 367.70043945 C168.03904568 362.49644174 173.6126159 356.9088228 179.14916992 351.24707031 C182.07569273 348.26129204 184.95585951 345.33789722 188.21850586 342.71826172 C191.12491928 340.27524848 193.34990786 337.72190994 195.69897461 334.74560547 C200.32831198 328.90896249 200.32831198 328.90896249 203.01147461 326.37060547 C201.91149485 323.07066619 201.39821268 322.70497395 198.76147461 320.68310547 C183.77443641 307.91736043 171.53479701 288.89212418 162.26977539 271.70458984 C161.30999846 269.92432841 160.34361643 268.14762629 159.37426758 266.37255859 C151.49108601 251.93578766 143.94512773 237.41058803 137.01342773 222.48730469 C135.64609496 219.59871424 134.1740907 216.76786139 132.69897461 213.93310547 C130.72079902 210.02607169 129.17248079 206.14074127 127.76147461 201.99560547 C124.96669168 193.86937358 121.36010802 186.16876428 117.76538086 178.37060547 C114.88814956 172.12749807 112.09374785 165.84952938 109.32397461 159.55810547 C108.85652832 158.49696533 108.38908203 157.4358252 107.9074707 156.3425293 C105.35095409 150.51078752 102.88298427 144.65457504 100.51147461 138.74560547 C92.2485423 118.28824521 81.89863266 98.64403156 70.83959961 79.57373047 C69.17825861 76.66283385 67.61997425 73.71868169 66.07397461 70.74560547 C56.57899597 53.25213938 43.10453481 40.5531202 24.01147461 34.37060547 C-0.60875045 28.16382604 -26.44367431 28.93869109 -49.17211914 41.06982422 C-64.30367235 50.20624373 -72.49584308 63.59181235 -76.98852539 80.37060547 C-78.23485241 83.82739927 -79.35087297 86.73295304 -81.98852539 89.37060547 C-84.98852539 89.24560547 -84.98852539 89.24560547 -87.98852539 88.37060547 C-89.42602539 86.80810547 -89.42602539 86.80810547 -89.98852539 84.37060547 C-89.52424401 78.27525421 -88.08730914 73.06880406 -85.92602539 67.37060547 C-85.46292969 66.13709351 -85.46292969 66.13709351 -84.99047852 64.87866211 C-79.5369663 50.69160692 -73.08674099 35.87263421 -61.06665039 26.07763672 C-58.95358386 24.38532983 -58.95358386 24.38532983 -56.97290039 22.44482422 C-41.60480907 7.78821861 -20.97865437 -0.00467804 0 0 Z " fill="#005CB9" transform="translate(378.988525390625,10.62939453125)"/>
<path d="M0 0 C3.91391043 3.29592457 3.91391043 3.29592457 5.6015625 5.125 C5.6015625 5.785 5.6015625 6.445 5.6015625 7.125 C7.0865625 7.62 7.0865625 7.62 8.6015625 8.125 C19.76517715 23.139629 29.46836899 46.08357378 27.6015625 65.125 C25.6015625 67.125 25.6015625 67.125 23.3515625 67.6875 C19.00981704 66.7994157 17.17741468 63.57620806 14.6015625 60.125 C12.7238377 57.19300109 11.03375097 54.17242935 9.3515625 51.125 C-2.15365765 28.70084819 -2.15365765 28.70084819 -21.3984375 14.125 C-30.08324399 12.78636441 -37.24410149 13.98318453 -44.3984375 19.125 C-60.9328633 32.70594822 -67.01505851 51.69066518 -71.4609375 71.8125 C-71.71815079 72.96042023 -71.71815079 72.96042023 -71.9805603 74.13153076 C-90.30215843 156.13176337 -86.08751906 243.35962827 -81.76165771 326.7149353 C-80.52277724 350.80114263 -79.79574703 374.88971125 -79.2109375 399 C-79.1895232 399.88243881 -79.1681089 400.76487762 -79.14604568 401.67405701 C-78.88465555 412.49076813 -78.63545179 423.30772761 -78.3984375 434.125 C-77.38632202 434.427547 -77.38632202 434.427547 -76.35375977 434.73620605 C-75.01655884 435.13652039 -75.01655884 435.13652039 -73.65234375 435.54492188 C-72.7713501 435.80849487 -71.89035645 436.07206787 -70.98266602 436.34362793 C-68.76158948 437.0151967 -66.54724856 437.70334963 -64.3359375 438.40625 C-43.69507751 444.86834519 -21.4077048 448.58864047 -0.17578125 442.68359375 C3.49988033 441.94432567 6.21774486 442.26607871 9.4140625 444.25 C11.35340472 447.31211929 11.09574373 449.60395874 10.6015625 453.125 C3.2475017 461.45960224 -9.99744304 464.37390898 -20.5546875 465.4453125 C-29.57520435 465.78023268 -37.816136 463.59786653 -46.3984375 461.125 C-48.23563468 460.60271539 -50.07287651 460.08058784 -51.91015625 459.55859375 C-54.71058626 458.76114253 -57.50953149 457.95979881 -60.3046875 457.14404297 C-61.15417969 456.8967041 -62.00367188 456.64936523 -62.87890625 456.39453125 C-63.63067139 456.17385986 -64.38243652 455.95318848 -65.15698242 455.72583008 C-73.83740188 453.39901249 -82.65329217 453.54778525 -91.4609375 455.19921875 C-94.28219789 455.09114628 -95.38996921 454.06470667 -97.3984375 452.125 C-97.76470947 449.72688293 -97.76470947 449.72688293 -97.57910156 446.84301758 C-97.5222821 445.75687668 -97.46546265 444.67073578 -97.40692139 443.55168152 C-97.32677795 442.36544693 -97.24663452 441.17921234 -97.1640625 439.95703125 C-97.03173807 437.3877389 -96.90364206 434.81822604 -96.77929688 432.24853516 C-96.74511532 431.58072242 -96.71093376 430.91290968 -96.6757164 430.22486019 C-96.31687711 423.03077563 -96.23464261 415.83918494 -96.1953125 408.63671875 C-96.19164673 407.97452017 -96.18798096 407.31232159 -96.1842041 406.63005638 C-96.16277533 402.4317698 -96.15306051 398.23354378 -96.15005493 394.03520584 C-96.14895953 392.52988247 -96.14721069 391.02455946 -96.14486694 389.51923752 C-96.11794621 371.56910416 -96.25915794 353.64464298 -97.0703125 335.7109375 C-97.10293308 334.98748075 -97.13555367 334.26402401 -97.16916275 333.51864433 C-97.33894571 329.77731987 -97.512095 326.03615511 -97.68585205 322.29501343 C-99.41179621 284.98709919 -99.74180666 247.70284045 -99.76692939 210.36164159 C-99.77073634 205.083203 -99.78195374 199.80481749 -99.79614258 194.52639771 C-100.17359329 43.21743658 -100.17359329 43.21743658 -62.12109375 1.71484375 C-44.0661998 -14.94806291 -19.10903146 -14.93865651 0 0 Z " fill="#005CB9" transform="translate(108.3984375,65.875)"/>
<path d="M0 0 C1.03253906 0.25523438 2.06507813 0.51046875 3.12890625 0.7734375 C16.85217444 4.75702267 33.75055559 14.41823126 41.0625 26.9453125 C43.68660735 32.69648111 44.36458998 37.63939941 44.375 43.875 C44.41173828 45.02162109 44.41173828 45.02162109 44.44921875 46.19140625 C44.48463144 53.14409811 42.61397318 58.32325559 37.72265625 63.33203125 C34.43440142 65.34650013 31.10953998 66.59418665 27.4375 67.6875 C26.73729736 67.90100098 26.03709473 68.11450195 25.31567383 68.33447266 C18.50910606 70.31109808 10.88793613 72.29597871 4 70 C3.97421875 70.63421875 3.9484375 71.2684375 3.921875 71.921875 C2.90956798 88.57892683 1.03992408 103.61486952 -11.5 115.375 C-16.17352573 119.28390883 -19.51450435 122 -25.8125 122 C-32.40833877 120.80190309 -38.03806286 117.6055852 -42.3125 112.4375 C-48.19844258 103.82113406 -49.99953605 93.30069332 -50.31640625 83.0703125 C-50.35830078 81.78125 -50.40019531 80.4921875 -50.44335938 79.1640625 C-50.48316028 77.81771091 -50.52287273 76.47135671 -50.5625 75.125 C-50.60575183 73.75519667 -50.64936812 72.38540479 -50.69335938 71.015625 C-50.79915522 67.67717843 -50.90124372 64.338661 -51 61 C-54.69416726 59.12914929 -58.38325121 57.27749884 -62.16015625 55.578125 C-70.09280951 51.9481087 -76.67927146 47.38598727 -80 39 C-81.11972261 30.30152328 -80.19694379 23.1387824 -75 16 C-56.73923872 -5.64667106 -25.95863395 -6.48261217 0 0 Z M-57.515625 24.578125 C-58.8911892 26.195597 -58.8911892 26.195597 -60 29 C-58.92084309 33.72373472 -56.96934528 36.68024979 -53.75 40.25 C-53.00234375 41.10078125 -52.2546875 41.9515625 -51.484375 42.828125 C-48.74196595 45.22557694 -46.49759211 46.0902217 -43 47 C-42.33613281 46.10796875 -41.67226562 45.2159375 -40.98828125 44.296875 C-40.09668356 43.11433491 -39.20473795 41.93205708 -38.3125 40.75 C-37.87744141 40.16347656 -37.44238281 39.57695313 -36.99414062 38.97265625 C-32.05158536 32.45580561 -27.04560258 28.77835066 -19 27 C-13.10215815 26.87712829 -8.26798267 30.14820684 -4 34 C0.52622264 40.51562433 1.97463152 49.42641469 4 57 C16.72974594 54.44301379 16.72974594 54.44301379 27 47 C28.15260408 42.9274656 28.40889122 40.85333821 26.5625 37 C15.41529495 23.9496136 -1.87569527 14.70192476 -19 13 C-34.13220506 12.03523277 -46.4924888 13.10042648 -57.515625 24.578125 Z M-20 42 C-21.33617897 43.81040321 -22.66887384 45.6233784 -24 47.4375 C-25.11375 48.95150391 -25.11375 48.95150391 -26.25 50.49609375 C-28.09547691 52.62746873 -28.09547691 52.62746873 -28 54 C-21.67551301 55.06965872 -15.35583327 56.13329546 -9 57 C-9.38852226 51.69019582 -11.21046948 47.71297435 -15 44 C-17.58377286 42.78663944 -17.58377286 42.78663944 -20 42 Z M-32 67 C-32.79819791 73.37914621 -33.21065958 79.63525946 -33.25 86.0625 C-33.270625 86.90876953 -33.29125 87.75503906 -33.3125 88.62695312 C-33.35433424 95.40932999 -32.38772246 101.10579096 -27.9375 106.5 C-26.14480659 108.20405773 -26.14480659 108.20405773 -24 108 C-15.11328318 97.51542523 -9.47754891 83.89719897 -10 70 C-12.54046458 69.49311395 -15.08208876 68.99433126 -17.625 68.5 C-18.33785156 68.35691406 -19.05070312 68.21382813 -19.78515625 68.06640625 C-23.92144935 67.26950574 -27.76433679 66.83965944 -32 67 Z " fill="#005CB9" transform="translate(229,71)"/>
<path d="M0 0 C2.875 0.25 2.875 0.25 6 1 C7.75567765 3.37948731 8.01156017 4.7463617 7.87646484 7.71044922 C7.60890381 9.30397217 7.60890381 9.30397217 7.3359375 10.9296875 C7.13452148 12.1784668 6.93310547 13.42724609 6.72558594 14.71386719 C6.55077698 15.74392883 6.55077698 15.74392883 6.37243652 16.7947998 C5.83679971 19.96631044 5.33624383 23.14319246 4.83163452 26.31976318 C4.40338427 29.01245356 3.97105458 31.70447046 3.53857422 34.39648438 C0.18966146 55.33159617 -2.66392051 76.23596072 -4.73632812 97.33410645 C-5.02526542 100.25544977 -5.32086641 103.17607631 -5.6171875 106.09667969 C-11.4513838 163.78567226 -15.50104062 222.09475603 -10 280 C-9.89816406 281.11068848 -9.79632813 282.22137695 -9.69140625 283.36572266 C-8.17245219 299.40615887 -5.57365778 315.20367402 -2.5625 331.02636719 C-2.08730159 333.53848381 -1.63120767 336.05250257 -1.1875 338.5703125 C0.22738741 346.2718019 2.34880339 353.35416069 5.109375 360.66015625 C6.06352336 364.23821261 5.88839596 366.44099913 5 370 C2.3125 370.8125 2.3125 370.8125 -1 371 C-5.2491913 367.51175738 -7.62688939 363.48944483 -9.875 358.5625 C-10.21450684 357.82298096 -10.55401367 357.08346191 -10.90380859 356.3215332 C-23.23632012 328.57768631 -27.89086643 297.97593403 -31 268 C-31.11859375 266.88222168 -31.2371875 265.76444336 -31.359375 264.61279297 C-37.80596832 200.30994326 -32.60342079 133.27677707 -20 70 C-19.77199707 68.85031738 -19.54399414 67.70063477 -19.30908203 66.51611328 C-7.85124425 9.44711617 -7.85124425 9.44711617 0 0 Z " fill="#005CB9" transform="translate(167,212)"/>
</svg>
