<?xml version="1.0" encoding="UTF-8"?>
<svg version="1.1" xmlns="http://www.w3.org/2000/svg" width="1000" height="379">
<path d="M0 0 C2.75219512 1.10002709 3.40916388 2.4091153 4.90063477 4.94946289 C5.41779053 5.81176514 5.93494629 6.67406738 6.46777344 7.5625 C7.01151611 8.49328369 7.55525879 9.42406738 8.11547852 10.38305664 C9.27644071 12.31461097 10.44054071 14.24428256 11.60766602 16.17211914 C12.4772998 17.61119629 12.4772998 17.61119629 13.36450195 19.0793457 C17.32440955 25.50818354 21.69651868 31.65703396 26.05297852 37.82055664 C26.86951625 38.98713129 27.6859249 40.1537963 28.50219727 41.32055664 C37.81146771 54.55524237 47.66587067 67.41423869 58.05297852 79.82055664 C58.67438721 80.56934082 58.67438721 80.56934082 59.30834961 81.33325195 C71.81069774 96.39531816 84.90611987 111.37236795 100.26000977 123.58618164 C103.1214019 125.87529535 105.89538008 128.24905689 108.67797852 130.63305664 C136.12907157 153.45046136 168.25915878 171.01714494 201.05297852 184.82055664 C200.81201172 187.16601562 200.81201172 187.16601562 200.05297852 189.82055664 C198.27246094 191.20751953 198.27246094 191.20751953 195.90844727 192.29321289 C194.57402588 192.92066406 194.57402588 192.92066406 193.21264648 193.56079102 C191.74142334 194.2153125 191.74142334 194.2153125 190.24047852 194.88305664 C189.21583496 195.35420898 188.19119141 195.82536133 187.13549805 196.31079102 C183.78518057 197.83874112 180.42144339 199.33307698 177.05297852 200.82055664 C175.3869458 201.56281494 175.3869458 201.56281494 173.68725586 202.32006836 C125.5030219 223.70195298 72.62367962 244.97689287 19.11547852 245.00805664 C18.01268555 245.02030273 16.90989258 245.03254883 15.77368164 245.04516602 C2.1263521 245.06932058 -9.53218318 242.65121192 -20.63452148 234.25805664 C-23.08319388 231.67702357 -23.74636446 230.33205457 -23.94702148 226.82055664 C-20.17392685 224.30516021 -17.9268431 224.96144985 -13.69702148 225.63305664 C-12.22868786 225.83788688 -10.75992371 226.03965156 -9.29077148 226.23852539 C-8.55342773 226.33955566 -7.81608398 226.44058594 -7.05639648 226.54467773 C51.55509021 234.21030042 108.63040194 217.0305628 162.67797852 196.19555664 C163.34953979 195.93771393 164.02110107 195.67987122 164.7130127 195.41421509 C171.92583096 193.00511949 171.92583096 193.00511949 178.05297852 188.82055664 C177.53727295 188.61076172 177.02156738 188.4009668 176.49023438 188.18481445 C153.90371069 178.92491042 132.99277454 167.93628716 113.05297852 153.82055664 C112.4385791 153.38614258 111.82417969 152.95172852 111.19116211 152.50415039 C92.24800912 138.97890655 73.99802983 122.66369775 59.05297852 104.82055664 C58.38057129 104.02681641 58.38057129 104.02681641 57.69458008 103.21704102 C49.32312037 93.30133146 41.81003393 82.97648274 34.6262207 72.17456055 C33.12156656 69.92318326 31.59536807 67.6883299 30.06079102 65.45727539 C19.05654985 49.37177121 9.15371806 32.62634912 0.67797852 15.07055664 C0.20739014 14.10029541 -0.26319824 13.13003418 -0.74804688 12.13037109 C-1.17206787 11.22891357 -1.59608887 10.32745605 -2.03295898 9.39868164 C-2.40469238 8.60880859 -2.77642578 7.81893555 -3.15942383 7.00512695 C-3.94702148 4.82055664 -3.94702148 4.82055664 -3.94702148 0.82055664 C-1.94702148 -0.17944336 -1.94702148 -0.17944336 0 0 Z " fill="#215FAC" transform="translate(177.947021484375,127.179443359375)"/>
<path d="M0 0 C0.928125 0.7425 1.85625 1.485 2.8125 2.25 C2.956875 1.115625 3.10125 -0.01875 3.25 -1.1875 C3.8125 -4.75 3.8125 -4.75 4.8125 -5.75 C7.50904854 -5.82319621 10.17941458 -5.84242537 12.875 -5.8125 C13.63361328 -5.80798828 14.39222656 -5.80347656 15.17382812 -5.79882812 C17.05341871 -5.7870068 18.93296899 -5.76907078 20.8125 -5.75 C20.905518 4.62103296 20.97642558 14.99196533 21.01974869 25.36333179 C21.04055031 30.18011612 21.06873095 34.9966133 21.11425781 39.81323242 C21.15798214 44.46871925 21.18169284 49.12393132 21.19200897 53.77960777 C21.19935292 55.54848233 21.21369299 57.31734326 21.23542023 59.08609962 C21.40847207 73.7687113 19.6915324 84.83554856 9.2578125 95.8984375 C-0.80654516 105.38493731 -14.19978572 107.75219573 -27.546875 107.4921875 C-39.84192484 106.67427646 -53.83568975 102.82629428 -63.1875 94.25 C-63.1875 91.25 -63.1875 91.25 -61 88.9375 C-60.071875 88.050625 -59.14375 87.16375 -58.1875 86.25 C-57.27927579 85.15600266 -56.38309453 84.05188119 -55.5 82.9375 C-54.736875 82.050625 -53.97375 81.16375 -53.1875 80.25 C-52.5275 80.25 -51.8675 80.25 -51.1875 80.25 C-51.1875 80.91 -51.1875 81.57 -51.1875 82.25 C-50.64996094 82.51683594 -50.11242187 82.78367187 -49.55859375 83.05859375 C-47.81545856 83.93446893 -46.0794647 84.82459327 -44.34765625 85.72265625 C-43.32542969 86.24730469 -42.30320312 86.77195312 -41.25 87.3125 C-40.23035156 87.83972656 -39.21070313 88.36695313 -38.16015625 88.91015625 C-29.42230822 92.848503 -18.35920303 92.4136848 -9.41015625 89.28515625 C-4.40896133 86.95595299 -0.59356288 83.81686974 1.75 78.75 C3.64872377 72.822277 3.04538304 66.39121199 2.8125 60.25 C1.94625 61.3328125 1.94625 61.3328125 1.0625 62.4375 C-5.81846856 69.09037015 -14.51134028 70.75001544 -23.75 70.8125 C-36.22617322 70.59428278 -45.93831008 66.86823743 -55.1875 58.25 C-63.78272575 47.37094407 -65.64741841 36.74826205 -64.1875 23.25 C-61.36880714 11.77389335 -54.03070285 3.46267241 -44.1875 -2.75 C-30.61498883 -9.94371192 -12.4788535 -8.70790771 0 0 Z M-41.1875 15.25 C-46.18149817 21.16394521 -47.5411067 27.71315941 -47.0625 35.3125 C-46.11056015 42.21138991 -43.89695269 47.18450213 -38.4375 51.625 C-31.68383534 56.21051401 -24.22472706 57.17463674 -16.1875 56.25 C-8.03684742 54.47616652 -2.77625584 51.25678288 1.8125 44.25 C4.92901607 38.28796925 4.73503911 30.35092204 3.27734375 23.87109375 C0.81292277 16.77409998 -3.01892795 12.67341668 -9.5625 9.26171875 C-20.91711769 4.88545985 -32.46092919 6.99834461 -41.1875 15.25 Z " fill="#000000" transform="translate(694.1875,179.75)"/>
<path d="M0 0 C0.76570313 0.75603516 0.76570313 0.75603516 1.546875 1.52734375 C1.546875 5.52734375 1.546875 5.52734375 -0.16796875 7.37890625 C-0.90144531 7.96414062 -1.63492188 8.549375 -2.390625 9.15234375 C-5.38572205 11.46358349 -5.38572205 11.46358349 -7.453125 14.52734375 C-11.84326299 13.70986978 -15.02367769 11.39345672 -18.72265625 9 C-28.22877268 3.87295294 -41.80125801 3.16878945 -52.22265625 5.8046875 C-62.18890344 9.03368177 -70.5411293 13.81238628 -76.1328125 22.91796875 C-81.82328697 34.16423191 -83.15262929 45.15268105 -79.828125 57.27734375 C-76.40062255 67.34337725 -69.84740688 74.87783009 -60.390625 79.77734375 C-44.55296688 87.11748915 -28.8613447 84.62939867 -12.453125 80.52734375 C-12.453125 71.28734375 -12.453125 62.04734375 -12.453125 52.52734375 C-20.703125 52.52734375 -28.953125 52.52734375 -37.453125 52.52734375 C-37.453125 47.57734375 -37.453125 42.62734375 -37.453125 37.52734375 C-23.593125 37.52734375 -9.733125 37.52734375 4.546875 37.52734375 C4.546875 55.01734375 4.546875 72.50734375 4.546875 90.52734375 C-15.25648359 100.42902305 -38.90757676 103.72009726 -60.48046875 97.6796875 C-75.84619421 92.35663815 -88.41811109 82.82439405 -95.69921875 67.98828125 C-101.6573337 53.88959166 -102.31147258 39.1393321 -97.453125 24.52734375 C-91.76557413 10.73080947 -81.20368416 0.52541073 -67.78125 -5.71484375 C-45.12707982 -15.11975682 -20.64279886 -13.2128553 0 0 Z " fill="#000000" transform="translate(483.453125,26.47265625)"/>
<path d="M0 0 C5.28 0 10.56 0 16 0 C23.45049312 15.35762937 30.77974461 30.75659406 37.90234375 46.26953125 C40.94367514 52.89085478 44.02306615 59.49397393 47.10934448 66.09442139 C48.86841049 69.85798484 50.62348784 73.62341087 52.37944031 77.38842773 C54.14032327 81.16243982 55.90693819 84.93371052 57.67718506 88.70333862 C58.53689196 90.53627775 59.39399996 92.37040526 60.25 94.20507812 C61.3106169 96.47801075 62.3755291 98.74894541 63.4453125 101.01757812 C63.91453125 102.02626953 64.38375 103.03496094 64.8671875 104.07421875 C65.28081543 104.95682373 65.69444336 105.83942871 66.12060547 106.7487793 C67 109 67 109 67 112 C60.4 112 53.8 112 47 112 C45.948125 109.7725 44.89625 107.545 43.8125 105.25 C43.3326062 104.23921387 43.3326062 104.23921387 42.84301758 103.20800781 C40.02469987 97.2020583 37.56158535 91.14780484 35 85 C16.52 85 -1.96 85 -21 85 C-21.66 86.98 -22.32 88.96 -23 91 C-24.27227153 94.27556462 -25.63906726 97.51038836 -27 100.75 C-27.35578125 101.61238281 -27.7115625 102.47476563 -28.078125 103.36328125 C-28.59632813 104.59884766 -28.59632813 104.59884766 -29.125 105.859375 C-29.43695313 106.60670898 -29.74890625 107.35404297 -30.0703125 108.12402344 C-31 110 -31 110 -33 112 C-34.97119141 112.22705078 -34.97119141 112.22705078 -37.3515625 112.1953125 C-38.62773437 112.18564453 -38.62773437 112.18564453 -39.9296875 112.17578125 C-41.26386719 112.15064453 -41.26386719 112.15064453 -42.625 112.125 C-43.5221875 112.11597656 -44.419375 112.10695313 -45.34375 112.09765625 C-47.56276586 112.0740497 -49.78125077 112.0411231 -52 112 C-52.33 111.34 -52.66 110.68 -53 110 C-52.23071289 107.91552734 -52.23071289 107.91552734 -50.97265625 105.3359375 C-50.51463623 104.3876709 -50.05661621 103.4394043 -49.5847168 102.46240234 C-49.08238525 101.44355957 -48.58005371 100.4247168 -48.0625 99.375 C-47.55178955 98.32393066 -47.0410791 97.27286133 -46.51489258 96.18994141 C-43.47660471 89.95297845 -40.3898796 83.74070165 -37.26513672 77.54663086 C-24.38564045 51.93145403 -12.24928315 25.92008805 0 0 Z M7 22 C4.4852184 27.38652216 1.97691709 32.77599794 -0.52563477 38.16821289 C-1.37643349 39.99910074 -2.228944 41.82919422 -3.08325195 43.65844727 C-4.31661447 46.30013266 -5.5436278 48.94469013 -6.76953125 51.58984375 C-7.14777542 52.39646957 -7.52601959 53.2030954 -7.91572571 54.03416443 C-8.27587265 54.81429398 -8.63601959 55.59442352 -9.00708008 56.39819336 C-9.32018631 57.07103867 -9.63329254 57.74388397 -9.95588684 58.43711853 C-11.49644767 62.21858107 -12.70876855 66.12630565 -14 70 C-0.14 70 13.72 70 28 70 C25.67826197 62.92068246 25.67826197 62.92068246 22.984375 56.0546875 C22.4430896 54.79084229 22.4430896 54.79084229 21.89086914 53.50146484 C21.32613892 52.20136475 21.32613892 52.20136475 20.75 50.875 C20.3573999 49.96572754 19.9647998 49.05645508 19.56030273 48.11962891 C14.02998699 34.65954075 14.02998699 34.65954075 7 22 Z " fill="#000000" transform="translate(480,138)"/>
<path d="M0 0 C5.61 0 11.22 0 17 0 C17.02311941 15.36801497 17.04097944 30.73602794 17.05181217 46.10405636 C17.05697501 53.23921741 17.06401748 60.37436748 17.07543945 67.50952148 C17.08644675 74.38889737 17.09227617 81.26826181 17.09487724 88.14764595 C17.09673206 90.77881615 17.10035373 93.40998569 17.10573006 96.04115105 C17.11293635 99.7122625 17.11399112 103.38332603 17.11352539 107.05444336 C17.11712067 108.15423523 17.12071594 109.2540271 17.12442017 110.387146 C17.1230455 111.38139084 17.12167084 112.37563568 17.12025452 113.40000916 C17.12117631 114.26925994 17.1220981 115.13851072 17.12304783 116.03410244 C17 118 17 118 16 119 C13.48863896 119.09975032 11.01096585 119.13882183 8.5 119.125 C7.79746094 119.12886719 7.09492187 119.13273437 6.37109375 119.13671875 C1.12661378 119.12661378 1.12661378 119.12661378 0 118 C-0.36760731 115.67182036 -0.70241581 113.3381615 -1 111 C-1.556875 111.39832031 -2.11375 111.79664062 -2.6875 112.20703125 C-3.450625 112.73683594 -4.21375 113.26664062 -5 113.8125 C-5.7425 114.33457031 -6.485 114.85664062 -7.25 115.39453125 C-13.84143177 119.24265406 -19.7108112 120.53446424 -27.3125 120.4375 C-28.14700684 120.42992676 -28.98151367 120.42235352 -29.84130859 120.41455078 C-36.50138229 120.23734548 -42.06777641 119.16319563 -48 116 C-49.19496094 115.36384766 -49.19496094 115.36384766 -50.4140625 114.71484375 C-58.81541047 109.67122515 -65.35185586 101.49877789 -68 92 C-70.16682108 78.42550325 -68.29841261 67.49462199 -60.69140625 56.02734375 C-55.29462847 49.0711571 -46.70601094 44.21603512 -38.140625 42.390625 C-23.11307523 40.52152677 -13.70334969 42.53110021 -1 51 C-0.67 34.17 -0.34 17.34 0 0 Z M-43 62 C-48.45612852 67.58301523 -51.07233365 73.10912905 -51.4375 80.875 C-51.1480029 88.41350438 -48.82806159 94.69716603 -43.3125 99.9375 C-37.31941988 104.64317773 -30.85670044 106.58066738 -23.26171875 106.2890625 C-16.30242547 105.39961914 -8.96618288 102.82629553 -4.55859375 97.140625 C0.18981496 89.94360667 1.26142321 82.35340683 -0.42578125 73.85546875 C-2.62658613 67.01002044 -7.14574512 61.66946984 -13.3125 58.0625 C-23.58679342 55.10211037 -34.41019361 54.80853419 -43 62 Z " fill="#000000" transform="translate(778,8)"/>
<path d="M0 0 C15.96965807 15.28719405 26.2285014 35.88539924 34.4375 56.125 C51.07942085 97.11601518 72.15510858 137.21760858 103.6875 168.75 C102.71369648 178.4474601 89.27900847 189.76960627 82.25 195.6875 C59.46015501 213.29292528 59.46015501 213.29292528 49.6875 212.75 C49.3575 211.1 49.0275 209.45 48.6875 207.75 C49.57050781 207.13253906 50.45351563 206.51507813 51.36328125 205.87890625 C61.63706035 198.64968968 71.34865859 190.98130079 80.625 182.5 C81.16906494 182.0045166 81.71312988 181.5090332 82.27368164 180.99853516 C85.38574129 178.11399787 88.1261482 175.13221876 90.6875 171.75 C90.09195313 171.47800781 89.49640625 171.20601562 88.8828125 170.92578125 C60.72961526 155.84728949 43.49665135 103.75993692 31.625 76.5 C14.92593968 36.64545201 14.92593968 36.64545201 -16.375 10 C-17.68086647 9.56298726 -18.99359727 9.14593303 -20.3125 8.75 C-20.95058594 8.54503906 -21.58867187 8.34007813 -22.24609375 8.12890625 C-37.1479002 4.04429011 -53.11303841 6.79465926 -66.546875 13.96875 C-74.45684437 19.06330654 -78.04708753 25.16741827 -80.42578125 34.1484375 C-81.33237192 36.80830264 -82.17137488 37.98672049 -84.3125 39.75 C-85.9625 39.09 -87.6125 38.43 -89.3125 37.75 C-88.44264805 24.99217135 -80.99858522 11.386764 -71.76171875 2.6953125 C-50.49045383 -14.19956777 -21.76819282 -17.81814599 0 0 Z " fill="#215EAC" transform="translate(281.3125,27.25)"/>
<path d="M0 0 C12.40972811 7.35085392 17.29979989 18.01713032 21.34765625 31.390625 C22.06273483 34.26402003 22.34765625 36.40108256 22.34765625 39.390625 C20.91015625 41.390625 20.91015625 41.390625 19.34765625 42.390625 C13.99957633 39.94827081 11.89738281 36.04471216 8.97265625 31.203125 C2.79365551 20.81536718 2.79365551 20.81536718 -6.08984375 12.890625 C-12.57956518 11.62433789 -17.00203941 11.87488008 -22.65234375 15.390625 C-35.85591294 24.78833447 -39.2751277 43.19667002 -41.95825195 58.19580078 C-42.62490883 62.248631 -43.15808013 66.31354512 -43.65234375 70.390625 C-43.75144043 71.19419434 -43.85053711 71.99776367 -43.95263672 72.82568359 C-48.57253476 112.44150403 -46.59768308 152.84581348 -44.92504883 192.57019043 C-44.72404552 197.42898848 -44.53737463 202.2882969 -44.35089302 207.14767075 C-44.12649101 212.97368226 -43.89346196 218.79933955 -43.66015625 224.625 C-43.6170142 225.72370171 -43.57387215 226.82240341 -43.52942276 227.95439911 C-43.40744633 231.02418582 -43.27923217 234.093643 -43.14892578 237.16308594 C-43.11354706 238.0748056 -43.07816833 238.98652527 -43.04171753 239.9258728 C-42.96985862 244.29692025 -42.96985862 244.29692025 -41.65234375 248.390625 C-39.86090877 249.12227448 -39.86090877 249.12227448 -37.6796875 249.64453125 C-36.86177734 249.85916016 -36.04386719 250.07378906 -35.20117188 250.29492188 C-34.33943359 250.51212891 -33.47769531 250.72933594 -32.58984375 250.953125 C-31.3378418 251.28473633 -31.3378418 251.28473633 -30.06054688 251.62304688 C-16.48902612 255.12435114 -3.53459938 254.52552473 10.34765625 253.390625 C11.00765625 255.040625 11.66765625 256.690625 12.34765625 258.390625 C7.25322983 263.96521575 1.37405744 265.88442231 -6.0390625 266.81640625 C-14.46836508 267.13535283 -21.47939549 265.55013354 -29.49584961 263.17895508 C-36.35712937 261.23684627 -42.53141749 261.00069418 -49.625 261.3125 C-52.65234375 261.390625 -52.65234375 261.390625 -54.65234375 260.390625 C-54.64790253 259.78835083 -54.6434613 259.18607666 -54.6388855 258.56555176 C-54.44202842 230.45344044 -54.48297633 202.42000945 -55.65234375 174.328125 C-56.44695431 154.92778912 -56.8738693 135.55777415 -56.90234375 116.140625 C-56.90733887 114.99085175 -56.91233398 113.84107849 -56.91748047 112.65646362 C-57.21671346 29.62604027 -57.21671346 29.62604027 -32.65234375 3.390625 C-23.30269633 -4.05093111 -10.79528753 -4.98514091 0 0 Z " fill="#225FAC" transform="translate(76.65234375,43.609375)"/>
<path d="M0 0 C0.79462646 0.00563965 1.58925293 0.0112793 2.40795898 0.01708984 C13.42808938 0.24458768 21.61729312 3.48890754 29.90625 10.8359375 C39.03094077 20.37961918 40.1875 32.70309605 40.1875 45.3125 C19.0675 45.3125 -2.0525 45.3125 -23.8125 45.3125 C-20.8346909 53.25332426 -19.01699156 58.05431371 -11.3125 61.625 C-3.4257158 64.75632618 4.20000503 65.62728634 12.171875 62.37890625 C15.1834632 60.78556598 17.73712631 58.71973882 20.328125 56.51953125 C22.1875 55.3125 22.1875 55.3125 26.1875 55.3125 C28.765625 56.625 28.765625 56.625 31.4375 58.3125 C32.32953125 58.869375 33.2215625 59.42625 34.140625 60 C34.81609375 60.433125 35.4915625 60.86625 36.1875 61.3125 C35.67491007 65.34127696 33.85437673 66.83287303 30.75 69.3125 C18.42516599 78.79449981 5.14404645 79.13692632 -9.8125 78.3125 C-20.14398971 76.93074248 -28.82517379 70.40589151 -35.34375 62.48828125 C-41.84777071 52.85333568 -43.16310098 41.08739451 -41.1875 29.8125 C-38.69980577 20.01720396 -31.8919331 11.06323345 -23.32421875 5.77734375 C-15.68932736 1.80349284 -8.57767349 -0.06361237 0 0 Z M-18.28515625 19.73046875 C-21.70843708 23.61284847 -23.8125 27.10763567 -23.8125 32.3125 C-8.6325 32.3125 6.5475 32.3125 22.1875 32.3125 C21.19528417 25.36698916 20.13458408 20.30506048 14.39453125 15.953125 C3.95889776 10.20415325 -9.54530183 11.31517126 -18.28515625 19.73046875 Z " fill="#000000" transform="translate(759.8125,172.6875)"/>
<path d="M0 0 C4.65710082 4.09677902 6.97568832 8.69157864 7.98046875 14.7421875 C8.0641177 16.61285231 8.09829881 18.48611342 8.09399414 20.35864258 C8.09388084 22.00978813 8.09388084 22.00978813 8.09376526 23.69429016 C8.08860397 24.8715416 8.08344269 26.04879303 8.078125 27.26171875 C8.07671005 28.47542648 8.0752951 29.68913422 8.07383728 30.93962097 C8.0682454 34.81133502 8.05569433 38.68299097 8.04296875 42.5546875 C8.0379527 45.18163979 8.03338998 47.80859299 8.02929688 50.43554688 C8.01827862 56.87111353 8.00154851 63.30664636 7.98046875 69.7421875 C5.66803083 69.76904162 3.35550605 69.78851591 1.04296875 69.8046875 C-0.24480469 69.81628906 -1.53257812 69.82789062 -2.859375 69.83984375 C-6.01953125 69.7421875 -6.01953125 69.7421875 -7.01953125 68.7421875 C-7.47412983 66.08755629 -7.72196363 63.42029612 -8.01953125 60.7421875 C-8.96828125 61.6496875 -9.91703125 62.5571875 -10.89453125 63.4921875 C-20.08194479 71.15441777 -30.18309907 71.99158393 -41.77392578 71.05566406 C-49.22610395 70.01537305 -55.09992863 66.40549153 -59.70703125 60.5546875 C-63.49407809 54.89087408 -63.65706132 49.39071535 -63.01953125 42.7421875 C-61.00769698 35.64017012 -56.25423074 31.47574625 -50.234375 27.58984375 C-37.8839518 21.08315956 -21.61081032 21.23602952 -8.01953125 21.7421875 C-9.10802309 16.39043594 -9.98189449 12.66446321 -14.01953125 8.7421875 C-20.33041575 5.52978781 -28.11517788 5.67159143 -35.01953125 6.7421875 C-38.4571207 8.03457086 -41.42681671 9.53541001 -44.56640625 11.4296875 C-47.01953125 12.7421875 -47.01953125 12.7421875 -51.01953125 12.7421875 C-53.16015625 10.9921875 -53.16015625 10.9921875 -55.26953125 8.7421875 C-56.32914063 7.6284375 -56.32914063 7.6284375 -57.41015625 6.4921875 C-58.20679688 5.6259375 -58.20679688 5.6259375 -59.01953125 4.7421875 C-45.01642811 -11.01130353 -16.60236649 -11.81265722 0 0 Z M-44.01953125 40.7421875 C-46.47791669 44.42976565 -46.82213756 47.46162051 -46.01953125 51.7421875 C-42.73848317 56.31576967 -39.47394717 57.7252625 -34.01953125 58.7421875 C-26.63589419 59.3376421 -20.62981605 57.82812983 -14.20703125 54.1171875 C-9.8340126 49.36933868 -7.77971003 44.1330342 -7.76953125 37.6796875 C-7.85203125 36.3803125 -7.93453125 35.0809375 -8.01953125 33.7421875 C-27.22781623 32.84147458 -27.22781623 32.84147458 -44.01953125 40.7421875 Z " fill="#000000" transform="translate(893.01953125,57.2578125)"/>
<path d="M0 0 C0.79011475 0.00563965 1.58022949 0.0112793 2.39428711 0.01708984 C12.40527966 0.22494476 20.38872796 2.75116474 28.125 9.3125 C32.87554757 14.55057394 34.2156092 18.9759209 34.34619141 25.89135742 C34.36936432 27.00898972 34.39253723 28.12662201 34.41641235 29.27812195 C34.4362619 30.47927139 34.45611145 31.68042084 34.4765625 32.91796875 C34.51129166 34.77038933 34.51129166 34.77038933 34.54672241 36.66023254 C34.60650687 39.93622136 34.66171382 43.2122512 34.71551514 46.48834229 C34.75004512 48.50263224 34.78837721 50.51681251 34.828125 52.53100586 C34.90380606 56.38908442 34.97255161 60.24722235 35.0390625 64.10546875 C35.06296051 65.31269089 35.08685852 66.51991302 35.11148071 67.76371765 C35.1283493 68.87189346 35.1452179 69.98006927 35.16259766 71.12182617 C35.17956696 72.10237473 35.19653625 73.08292328 35.21401978 74.09318542 C35.125 76.3125 35.125 76.3125 34.125 77.3125 C31.98105481 77.4116757 29.83373268 77.4422015 27.6875 77.4375 C26.51316406 77.44007812 25.33882812 77.44265625 24.12890625 77.4453125 C21.125 77.3125 21.125 77.3125 19.125 76.3125 C18.53144386 73.66389573 18.38290731 71.02052678 18.125 68.3125 C17.6403125 68.78300781 17.155625 69.25351563 16.65625 69.73828125 C15.65078125 70.67220703 15.65078125 70.67220703 14.625 71.625 C13.9753125 72.23988281 13.325625 72.85476562 12.65625 73.48828125 C6.47942905 77.93978647 0.22451956 78.8441565 -7.25 78.75 C-8.08490967 78.74315186 -8.91981934 78.73630371 -9.7800293 78.72924805 C-16.11820133 78.56432339 -21.38761897 77.66896646 -26.875 74.3125 C-27.46410156 73.961875 -28.05320312 73.61125 -28.66015625 73.25 C-33.22721142 70.01827545 -35.35544491 65.53703772 -36.875 60.3125 C-37.99731721 53.67021448 -36.47679566 47.9602861 -32.875 42.3125 C-24.10569425 32.08921609 -10.54582001 30.48868373 2.125 29.3125 C7.46391314 29.03901208 12.78331652 29.11356834 18.125 29.3125 C17.03650816 23.96074844 16.16263676 20.23477571 12.125 16.3125 C5.81275936 13.09941 -1.96940862 13.24401308 -8.875 14.3125 C-12.3431549 15.60367455 -15.34538998 17.10864962 -18.51953125 19 C-20.875 20.3125 -20.875 20.3125 -23.875 20.3125 C-25.91796875 18.78125 -25.91796875 18.78125 -28.0625 16.8125 C-29.13564453 15.83796875 -29.13564453 15.83796875 -30.23046875 14.84375 C-31.04451172 14.08578125 -31.04451172 14.08578125 -31.875 13.3125 C-31.78515625 11.5390625 -31.78515625 11.5390625 -30.875 9.3125 C-28.67739854 7.89911725 -26.65934332 6.7844733 -24.3125 5.6875 C-23.41821289 5.23890625 -23.41821289 5.23890625 -22.50585938 4.78125 C-15.14312113 1.21430714 -8.14946682 -0.06111009 0 0 Z M-17.875 48.3125 C-20.22562814 51.517902 -20.27307915 54.41132438 -19.875 58.3125 C-18.81699725 61.34544121 -17.84211233 62.82108113 -14.953125 64.2890625 C-7.24275934 67.13392156 -0.68111656 67.13825872 7.015625 64.28515625 C11.62423235 62.1600762 14.38774021 59.56584165 17 55.125 C18.39377942 50.40163642 18.39028283 46.19566917 18.125 41.3125 C-1.12039716 40.37299188 -1.12039716 40.37299188 -17.875 48.3125 Z " fill="#000000" transform="translate(615.875,49.6875)"/>
<path d="M0 0 C7.44954901 7.96928499 8.40008892 15.96040637 8.17578125 26.5390625 C8.16870651 27.81228363 8.16163177 29.08550476 8.15434265 30.39730835 C8.13124526 33.74837307 8.08649851 37.09766524 8.03082275 40.44824219 C7.9792582 43.88070533 7.95675016 47.3133532 7.93164062 50.74609375 C7.87674841 57.45627284 7.79056369 64.16539491 7.6875 70.875 C2.4075 70.875 -2.8725 70.875 -8.3125 70.875 C-8.3218457 69.40224609 -8.33119141 67.92949219 -8.34082031 66.41210938 C-8.38082394 60.92515301 -8.44661257 55.4387512 -8.52001953 49.95214844 C-8.54816889 47.58177844 -8.56941329 45.21131562 -8.58349609 42.84082031 C-8.60500851 39.42464894 -8.65170394 36.00958645 -8.703125 32.59375 C-8.70435364 31.54135132 -8.70558228 30.48895264 -8.70684814 29.40466309 C-8.83693347 22.80472626 -9.82526065 18.51636155 -13.3125 12.875 C-17.48433753 9.07126578 -22.86788965 8.88331238 -28.3125 8.875 C-34.32569567 9.45829059 -38.1685158 11.63464408 -42.3125 15.875 C-46.57553187 22.78405165 -46.48423992 29.99348608 -46.62890625 37.8671875 C-46.64968735 38.81312775 -46.67046844 39.75906799 -46.69187927 40.7336731 C-46.75697585 43.73904541 -46.81607336 46.74450101 -46.875 49.75 C-46.9182232 51.79427926 -46.96183868 53.83855026 -47.00585938 55.8828125 C-47.1126161 60.88012416 -47.21399471 65.87751916 -47.3125 70.875 C-49.95840014 70.90184679 -52.60403096 70.92176357 -55.25 70.9375 C-56.00474609 70.94587891 -56.75949219 70.95425781 -57.53710938 70.96289062 C-59.46244313 70.97152441 -61.38785581 70.92724333 -63.3125 70.875 C-65.22456302 68.96293698 -64.44035765 65.51373616 -64.44189453 62.984375 C-64.44364685 62.26407104 -64.44539917 61.54376709 -64.44720459 60.80163574 C-64.45162288 58.40939966 -64.44868521 56.0172369 -64.4453125 53.625 C-64.44598555 51.96972642 -64.44695558 50.31445293 -64.44821167 48.65917969 C-64.44968861 45.18553733 -64.44753421 41.71192063 -64.44287109 38.23828125 C-64.4371738 33.77567502 -64.44045283 29.31312892 -64.44644356 24.8505249 C-64.45004927 21.4311477 -64.44891054 18.01178485 -64.44631577 14.59240723 C-64.44564652 12.94649244 -64.44647482 11.30057637 -64.44879532 9.65466309 C-64.45132202 7.35828169 -64.44748103 5.06199901 -64.44189453 2.765625 C-64.44109894 1.45625977 -64.44030334 0.14689453 -64.43948364 -1.20214844 C-64.3125 -4.125 -64.3125 -4.125 -63.3125 -5.125 C-60.61595146 -5.19819621 -57.94558542 -5.21742537 -55.25 -5.1875 C-54.49138672 -5.18298828 -53.73277344 -5.17847656 -52.95117188 -5.17382812 C-51.07158129 -5.1620068 -49.19203101 -5.14407078 -47.3125 -5.125 C-46.9825 -2.155 -46.6525 0.815 -46.3125 3.875 C-45.83941406 3.40449219 -45.36632812 2.93398437 -44.87890625 2.44921875 C-32.20752821 -9.48114303 -14.30104211 -9.17425343 0 0 Z " fill="#000000" transform="translate(617.3125,179.125)"/>
<path d="M0 0 C6.62009416 4.34366773 9.40452463 10.47529263 11.8515625 17.81640625 C11.94445469 19.57506235 11.97948158 21.33703747 11.98095703 23.09814453 C11.98410919 24.17581085 11.98726135 25.25347717 11.99050903 26.36380005 C11.98747269 28.10764481 11.98747269 28.10764481 11.984375 29.88671875 C11.98533173 31.07868866 11.98628845 32.27065857 11.98727417 33.49874878 C11.98795499 36.0188604 11.98610755 38.53897378 11.98193359 41.05908203 C11.9765746 44.93265687 11.98188678 48.80611624 11.98828125 52.6796875 C11.98762064 55.12369817 11.98633982 57.56770878 11.984375 60.01171875 C11.98639923 61.17833038 11.98842346 62.34494202 11.99050903 63.54690552 C11.98578079 65.15394852 11.98578079 65.15394852 11.98095703 66.79345703 C11.98016144 67.741492 11.97936584 68.68952698 11.97854614 69.66629028 C11.8515625 71.81640625 11.8515625 71.81640625 10.8515625 72.81640625 C8.34020146 72.91615657 5.86252835 72.95522808 3.3515625 72.94140625 C2.64902344 72.94527344 1.94648437 72.94914062 1.22265625 72.953125 C-4.02182372 72.94302003 -4.02182372 72.94302003 -5.1484375 71.81640625 C-5.25542659 70.28318379 -5.29464994 68.74515972 -5.30615234 67.20825195 C-5.31641449 66.22665604 -5.32667664 65.24506012 -5.33724976 64.23371887 C-5.34455109 63.16401352 -5.35185242 62.09430817 -5.359375 60.9921875 C-5.3874533 58.74413346 -5.41611783 56.49608669 -5.4453125 54.24804688 C-5.48652988 50.69083939 -5.52340143 47.13376601 -5.54980469 43.57641602 C-5.57744801 40.1522182 -5.62333405 36.72864437 -5.671875 33.3046875 C-5.67512787 32.2451033 -5.67838074 31.1855191 -5.68173218 30.09382629 C-5.77276743 24.61319959 -5.98774176 20.50928868 -9.1484375 15.81640625 C-13.79042041 11.72704035 -18.12445779 10.73688177 -24.1484375 10.81640625 C-30.44708498 11.39845948 -34.77596757 13.02751061 -39.1484375 17.81640625 C-42.99410339 25.13071197 -43.29900645 33.02296056 -43.4296875 41.1171875 C-43.44809692 41.99416794 -43.46650635 42.87114838 -43.48547363 43.77470398 C-43.56388154 47.50992108 -43.63224955 51.24530156 -43.70068359 54.98071289 C-43.75222897 57.71380006 -43.80950295 60.44672414 -43.8671875 63.1796875 C-43.88076294 64.03065506 -43.89433838 64.88162262 -43.9083252 65.75837708 C-44.03551874 71.70348749 -44.03551874 71.70348749 -45.1484375 72.81640625 C-47.48003805 72.91549927 -49.81473692 72.94611129 -52.1484375 72.94140625 C-53.4271875 72.94398437 -54.7059375 72.9465625 -56.0234375 72.94921875 C-59.1484375 72.81640625 -59.1484375 72.81640625 -60.1484375 71.81640625 C-60.24287085 69.5158679 -60.26585878 67.21238452 -60.26196289 64.90991211 C-60.26210892 64.18800186 -60.26225494 63.46609161 -60.2624054 62.7223053 C-60.26170619 60.32525678 -60.25391345 57.92828502 -60.24609375 55.53125 C-60.2442296 53.87358136 -60.24280568 52.21591218 -60.24180603 50.5582428 C-60.23798062 46.18686411 -60.22815015 41.81551844 -60.21710205 37.44415283 C-60.20688842 32.98686164 -60.20230851 28.52956514 -60.19726562 24.07226562 C-60.1865279 15.32029563 -60.16893092 6.56835885 -60.1484375 -2.18359375 C-54.8684375 -2.18359375 -49.5884375 -2.18359375 -44.1484375 -2.18359375 C-43.8184375 0.45640625 -43.4884375 3.09640625 -43.1484375 5.81640625 C-42.2203125 4.90890625 -41.2921875 4.00140625 -40.3359375 3.06640625 C-29.05888494 -6.45142611 -12.68664276 -6.98918683 0 0 Z " fill="#030303" transform="translate(969.1484375,54.18359375)"/>
<path d="M0 0 C5.28 0 10.56 0 16 0 C16.01981934 1.32128906 16.03963867 2.64257812 16.06005859 4.00390625 C16.13644518 8.93166339 16.22511068 13.85913793 16.31738281 18.78662109 C16.35553643 20.9144938 16.39041246 23.042428 16.421875 25.17041016 C16.46782232 28.23882955 16.52576688 31.30683047 16.5859375 34.375 C16.59748871 35.31802979 16.60903992 36.26105957 16.62094116 37.23266602 C16.7782046 44.35854083 17.16770676 52.36232455 22 58 C27.70320802 61.26650251 33.75512967 62.01593372 40.10546875 60.49609375 C44.80048822 58.95457704 47.91215358 56.97008825 51 53 C53.89739439 46.65949781 54.46482362 41.29581962 54.51171875 34.375 C54.52966995 33.38749756 54.54762115 32.39999512 54.56611633 31.38256836 C54.61992681 28.2550879 54.654021 25.12775748 54.6875 22 C54.7206989 19.86846884 54.75519091 17.7369574 54.79101562 15.60546875 C54.87563644 10.4037546 54.94258677 5.2020827 55 0 C60.61 0 66.22 0 72 0 C72.02255209 9.63113018 72.0409157 19.26224295 72.05181217 28.89339352 C72.05704074 33.36505549 72.06413789 37.83669853 72.07543945 42.30834961 C72.08626929 46.62011973 72.09227704 50.93187159 72.09487724 55.24365425 C72.09673132 56.89236298 72.1003516 58.54107066 72.10573006 60.18977165 C72.11294178 62.49103872 72.11399089 64.7922294 72.11352539 67.09350586 C72.115746 68.4058873 72.11796661 69.71826874 72.12025452 71.07041931 C72 74 72 74 71 75 C68.48863896 75.09975032 66.01096585 75.13882183 63.5 75.125 C62.79746094 75.12886719 62.09492187 75.13273437 61.37109375 75.13671875 C56.12661378 75.12661378 56.12661378 75.12661378 55 74 C54.63239269 71.67182036 54.29758419 69.3381615 54 67 C53.21625 67.7425 52.4325 68.485 51.625 69.25 C43.01458509 76.22980516 33.59625869 77.01603602 22.8984375 76.22314453 C18.69105956 75.72860448 15.46841632 74.37572419 12 72 C11.28328125 71.51402344 10.5665625 71.02804688 9.828125 70.52734375 C4.3157989 66.2723913 1.81222346 61.66247058 0 55 C-0.49524014 50.65039624 -0.4690324 46.36521685 -0.390625 41.9921875 C-0.38496521 40.7855545 -0.37930542 39.57892151 -0.37347412 38.33572388 C-0.351241 34.51506394 -0.30106677 30.69537229 -0.25 26.875 C-0.22991822 24.27084696 -0.21167041 21.66667909 -0.1953125 19.0625 C-0.15141868 12.70796525 -0.08248018 6.3541463 0 0 Z " fill="#000000" transform="translate(498,52)"/>
<path d="M0 0 C3.11322021 2.33491516 4.25382498 4.4487837 5.5 8.125 C3.76041859 9.32771059 2.00790255 10.5117301 0.25 11.6875 C-0.72453125 12.34878906 -1.6990625 13.01007813 -2.703125 13.69140625 C-5.5 15.125 -5.5 15.125 -7.66015625 14.96484375 C-9.5 14.125 -9.5 14.125 -12.6875 12.125 C-19.25595791 8.28756403 -25.69188886 8.80529952 -32.84765625 10.65234375 C-33.39292969 10.80832031 -33.93820312 10.96429688 -34.5 11.125 C-34.5928125 13.0121875 -34.5928125 13.0121875 -34.6875 14.9375 C-34.72230469 15.64519531 -34.75710938 16.35289062 -34.79296875 17.08203125 C-34.63898695 19.15610454 -34.63898695 19.15610454 -33.453125 20.765625 C-30.57561578 22.76837142 -27.43273247 23.32849111 -24.0625 24.0625 C-22.61389425 24.40727373 -21.1659786 24.75495922 -19.71875 25.10546875 C-18.64560547 25.36336182 -18.64560547 25.36336182 -17.55078125 25.62646484 C-8.22652888 27.89314619 -0.80727582 30.53081365 5.5 38.125 C8.37978372 43.84764713 8.51573817 50.20520505 6.91796875 56.37109375 C4.45306739 62.14504078 -0.06338604 66.13410514 -5.5 69.125 C-12.29457974 71.78787517 -18.67659095 72.64814286 -25.9375 72.5625 C-27.31663574 72.54896484 -27.31663574 72.54896484 -28.72363281 72.53515625 C-39.7319885 72.25439054 -46.751808 69.47842913 -54.91796875 62.02734375 C-56.5 60.125 -56.5 60.125 -56.5 57.125 C-54.09375 55.08203125 -54.09375 55.08203125 -51 52.9375 C-49.9790625 52.22207031 -48.958125 51.50664062 -47.90625 50.76953125 C-46.71515625 49.95548828 -46.71515625 49.95548828 -45.5 49.125 C-44.76136719 49.61871094 -44.02273438 50.11242187 -43.26171875 50.62109375 C-34.8543258 55.93046389 -27.89912305 58.45237071 -18 56.375 C-14.00791836 55.11434258 -14.00791836 55.11434258 -11.5 52.125 C-10.74984805 49.16808291 -10.74984805 49.16808291 -11.5 46.125 C-16.30627998 42.08493856 -21.20609739 40.98693061 -27.25 39.6875 C-37.37031182 37.31977387 -46.42069597 35.14590276 -52.5 26.125 C-54.3270828 20.64375161 -54.6132125 14.26176233 -52.6640625 8.76953125 C-48.66599191 1.83328126 -41.97629311 -3.17097701 -34.3125 -5.40625 C-22.53187425 -7.36968763 -10.04484206 -6.94723479 0 0 Z " fill="#000000" transform="translate(883.5,178.875)"/>
<path d="M0 0 C3.82143052 3.34576723 6.23425404 6.35500834 7.125 11.4375 C7.34334363 16.35862957 6.04859843 20.13668992 3 24 C-3.13104052 29.21757741 -11.22548039 30.32393832 -19 30 C-19.03867188 30.89138672 -19.03867188 30.89138672 -19.078125 31.80078125 C-19.57165177 39.01300207 -20.64300227 47.11069061 -25.52734375 52.76953125 C-30.19439783 56.72911014 -33.51783198 57.36838763 -39.4609375 57.265625 C-43.3559264 56.85814924 -45.20521841 55.72823917 -48 53 C-51.78445082 46.67195673 -52.6328207 40.69729024 -52.75 33.4375 C-52.77964844 32.52419922 -52.80929688 31.61089844 -52.83984375 30.66992188 C-52.9096885 28.44653077 -52.96279745 26.22413532 -53 24 C-53.96099609 23.67128906 -53.96099609 23.67128906 -54.94140625 23.3359375 C-61.17189262 21.05173534 -67.87059253 18.25881494 -71 12 C-71.83473683 6.90704871 -71.50179282 3.02897839 -68.5 -1.25 C-62.49587192 -8.35866108 -54.58206044 -11.87222064 -45.3984375 -12.83984375 C-28.62798606 -13.95969474 -13.39324535 -10.77282778 0 0 Z M-56 2.375 C-58.23234055 4.79075702 -58.23234055 4.79075702 -58.125 7.5625 C-56.6505119 10.75722421 -54.93135365 12.09121158 -52 14 C-49.81785432 14.77833534 -49.81785432 14.77833534 -48 15 C-47.175 14.05125 -46.35 13.1025 -45.5 12.125 C-45.0359375 11.59132813 -44.571875 11.05765625 -44.09375 10.5078125 C-42.80427542 9.04063579 -42.80427542 9.04063579 -43 7 C-36.98695223 4.46388461 -33.32035205 3.47185918 -27 6 C-25.515 6.495 -25.515 6.495 -24 7 C-23 9 -23 9 -22 12 C-21.60941406 13.15435547 -21.60941406 13.15435547 -21.2109375 14.33203125 C-20.4630396 16.551261 -19.72745128 18.7739991 -19 21 C-13.79459302 20.03603575 -9.40086567 19.12319499 -5 16 C-4.88169803 13.10160185 -4.89265736 11.6229222 -6 9 C-15.42429906 -0.13986347 -27.67381426 -3.25645739 -40.39794922 -3.2487793 C-47.19172431 -3.13308036 -50.65946402 -1.85292431 -56 2.375 Z M-34 13 C-35.98 15.97 -35.98 15.97 -38 19 C-33.05 19.99 -33.05 19.99 -28 21 C-29.01160848 16.60685207 -29.01160848 16.60685207 -32.125 13.625 C-32.74375 13.41875 -33.3625 13.2125 -34 13 Z M-41 27 C-42.14888581 30.44665742 -42.2039347 33.24351905 -42.25 36.875 C-42.27578125 38.08929688 -42.3015625 39.30359375 -42.328125 40.5546875 C-41.98031164 44.20672783 -41.12478034 46.05885669 -39 49 C-36.6147267 49.12815365 -36.6147267 49.12815365 -34 48 C-29.7164475 42.56932666 -28.99420554 35.62803695 -28 29 C-32.29 28.34 -36.58 27.68 -41 27 Z " fill="#215EAC" transform="translate(177,61)"/>
<path d="M0 0 C1.66611905 -0.042721 3.33382885 -0.04063832 5 0 C6 1 6 1 6.234375 4.0859375 C6.15212778 10.27915302 4.79630692 16.32437042 3.66366577 22.39254761 C1.07662591 36.35416522 -0.88357246 50.31106239 -2.3125 64.4375 C-2.39326782 65.2338385 -2.47403564 66.030177 -2.55725098 66.85064697 C-2.98866409 71.14642251 -3.41162456 75.4430101 -3.79733276 79.74316406 C-3.94661089 81.40547631 -4.10266248 83.06718369 -4.26248169 84.72851562 C-4.94083842 92.14446609 -5.17500508 99.5003974 -5.203125 106.9453125 C-5.20882507 108.15404022 -5.21452515 109.36276794 -5.22039795 110.60812378 C-5.22979056 113.15784853 -5.2363589 115.70758511 -5.24023438 118.25732422 C-5.24985181 122.06631051 -5.28089532 125.8747356 -5.3125 129.68359375 C-5.4151454 153.47137522 -4.08709919 177.58895376 3.75 200.25 C4.82924935 203.48774806 5.32481682 205.64355952 5 209 C3.25 209.75 3.25 209.75 1 210 C-12.16916235 198.82855489 -14.89390133 175.1889673 -17 159 C-17.10441406 158.2275293 -17.20882812 157.45505859 -17.31640625 156.65917969 C-23.47943116 109.01275613 -21.80945197 43.61890393 0 0 Z " fill="#215EAC" transform="translate(116,130)"/>
<path d="M0 0 C5.61 0 11.22 0 17 0 C17 37.62 17 75.24 17 114 C11.39 114 5.78 114 0 114 C0 76.38 0 38.76 0 0 Z " fill="#000000" transform="translate(804,136)"/>
<path d="M0 0 C1 1 1 1 1.09765625 4.59765625 C1.0909822 6.08596867 1.07902183 7.57426432 1.0625 9.0625 C1.05798828 9.82111328 1.05347656 10.57972656 1.04882812 11.36132812 C1.0370068 13.24091871 1.01907078 15.12046899 1 17 C0.16597656 16.96519531 -0.66804687 16.93039063 -1.52734375 16.89453125 C-10.0866473 16.68863735 -17.10166868 16.84815765 -23.9375 22.375 C-29.25207225 29.13900104 -29.14801145 37.04814553 -29.28125 45.30078125 C-29.29965942 46.17776169 -29.31806885 47.05474213 -29.33703613 47.95829773 C-29.41544404 51.69351483 -29.48381205 55.42889531 -29.55224609 59.16430664 C-29.60379147 61.89739381 -29.66106545 64.63031789 -29.71875 67.36328125 C-29.73232544 68.21424881 -29.74590088 69.06521637 -29.7598877 69.94197083 C-29.88708124 75.88708124 -29.88708124 75.88708124 -31 77 C-35.95 77 -40.9 77 -46 77 C-46 52.25 -46 27.5 -46 2 C-40.72 2 -35.44 2 -30 2 C-29.67 4.64 -29.34 7.28 -29 10 C-28.52691406 9.52949219 -28.05382812 9.05898438 -27.56640625 8.57421875 C-19.21058867 0.70704547 -11.3870287 -0.96124268 0 0 Z " fill="#000000" transform="translate(708,50)"/>
<path d="M0 0 C5.28 0 10.56 0 16 0 C16 24.75 16 49.5 16 75 C11.05 75 6.1 75 1 75 C0 74 0 74 -0.12025452 71.07041931 C-0.11803391 69.75803787 -0.11581329 68.44565643 -0.11352539 67.09350586 C-0.11367142 66.37159561 -0.11381744 65.64968536 -0.1139679 64.90589905 C-0.11326869 62.50885053 -0.10547595 60.11187877 -0.09765625 57.71484375 C-0.0957921 56.05717511 -0.09436818 54.39950593 -0.09336853 52.74183655 C-0.08954312 48.37045786 -0.07971265 43.99911219 -0.06866455 39.62774658 C-0.05845092 35.17045539 -0.05387101 30.71315889 -0.04882812 26.25585938 C-0.0380904 17.50388938 -0.02049342 8.7519526 0 0 Z " fill="#000000" transform="translate(804,52)"/>
<path d="M0 0 C3.3 0 6.6 0 10 0 C10.38857178 0.90355225 10.77714355 1.80710449 11.17749023 2.73803711 C12.61567789 6.08054783 14.05699117 9.42170294 15.49926758 12.76245117 C16.12382396 14.21032335 16.74752466 15.65856495 17.37036133 17.10717773 C18.2642059 19.18570413 19.16108912 21.26289562 20.05859375 23.33984375 C20.3377916 23.99089584 20.61698944 24.64194794 20.90464783 25.31272888 C22.09770136 28.37907656 22.09770136 28.37907656 24 31 C24.35304199 30.20303711 24.70608398 29.40607422 25.06982422 28.58496094 C26.384826 25.61766656 27.70067385 22.65074925 29.01708984 19.68408203 C29.58578689 18.4020052 30.15415018 17.11978026 30.72216797 15.83740234 C31.54045457 13.99016691 32.36005621 12.14351418 33.1796875 10.296875 C33.67194824 9.18666992 34.16420898 8.07646484 34.67138672 6.93261719 C35.72924352 4.59763448 36.85359647 2.29280706 38 0 C40.97 0 43.94 0 47 0 C47 14.85 47 29.7 47 45 C44.69 45 42.38 45 40 45 C39.67 35.1 39.34 25.2 39 15 C35.46851866 23.37585315 35.46851866 23.37585315 31.93994141 31.75292969 C31.49827637 32.79868164 31.05661133 33.84443359 30.6015625 34.921875 C30.15119629 35.99018555 29.70083008 37.05849609 29.23681641 38.15917969 C28.22476725 40.48373633 27.16364774 42.74869784 26 45 C24.35 45 22.7 45 21 45 C14.565 29.655 14.565 29.655 8 14 C7.67 24.23 7.34 34.46 7 45 C4.69 45 2.38 45 0 45 C0 30.15 0 15.3 0 0 Z " fill="#215EAC" transform="translate(550,318)"/>
<path d="M0 0 C20 0 20 0 28 4 C30.34354906 8.68709812 30.57826586 11.86903783 30 17 C28.13113908 21.7759779 25.49924317 22.86621259 21 25 C22.26747489 27.25195063 23.53882868 29.50155747 24.8125 31.75 C25.16892578 32.38421875 25.52535156 33.0184375 25.89257812 33.671875 C27.42075857 36.36371578 28.87778029 38.84820679 30.82421875 41.265625 C31.40623047 42.12414062 31.40623047 42.12414062 32 43 C31.67 43.99 31.34 44.98 31 46 C27.83203125 45.9921875 27.83203125 45.9921875 24 45 C21.7367845 42.65853701 20.25513365 39.96402157 18.6875 37.125 C18.25888672 36.39152344 17.83027344 35.65804687 17.38867188 34.90234375 C16.59279914 33.53905473 15.80670709 32.16997238 15.03393555 30.79345703 C14.08948897 29.15522692 13.04892285 27.57338428 12 26 C10.35 25.67 8.7 25.34 7 25 C7 31.6 7 38.2 7 45 C4.69 45 2.38 45 0 45 C0 30.15 0 15.3 0 0 Z M7 6 C7 10.29 7 14.58 7 19 C9.84625 19.0928125 9.84625 19.0928125 12.75 19.1875 C13.81734375 19.22230469 14.8846875 19.25710938 15.984375 19.29296875 C19.34489034 18.96649381 20.6928617 18.44024243 23 16 C23.33380814 12.37436186 23.33380814 12.37436186 23 9 C17.51220899 5.53402673 13.29810865 5.74467127 7 6 Z " fill="#215EAC" transform="translate(801,318)"/>
<path d="M0 0 C4.9589935 2.9670088 8.37166536 7.05583073 10.9375 12.1875 C12.36746074 19.62329584 12.42469759 26.55923041 8.96484375 33.4296875 C5.45480358 38.45520463 0.29284263 41.50416252 -5.4375 43.4375 C-12.33193008 44.44359963 -18.1162611 43.52517295 -24.203125 40.1328125 C-28.98340955 36.50581339 -32.33969199 31.35865596 -33.4375 25.4375 C-34.26404476 18.47284413 -32.89837332 12.53675514 -29.4375 6.4375 C-27.55539886 4.2223304 -25.92792751 3.08118216 -23.4375 1.4375 C-22.591875 0.839375 -21.74625 0.24125 -20.875 -0.375 C-14.27708472 -2.65427982 -6.46733356 -2.89098533 0 0 Z M-23.7578125 10.16796875 C-26.58398087 15.11870424 -27.28338962 19.81912204 -26.4375 25.4375 C-24.47315961 31.11226113 -20.80949338 34.75150331 -15.4375 37.4375 C-9.42355172 38.31089498 -5.05365989 37.4575549 -0.1015625 33.90625 C3.23376657 30.96239148 4.31709805 28.25570535 4.90625 23.890625 C5.23065115 18.01896428 4.55034366 13.81757739 1.0390625 9.03125 C-2.41220052 5.30607722 -5.95244692 4.27579669 -10.875 4 C-16.33175607 4.22966145 -20.38762167 5.75082514 -23.7578125 10.16796875 Z " fill="#215EAC" transform="translate(517.4375,319.5625)"/>
<path d="M0 0 C2.31 0 4.62 0 7 0 C7 5.94 7 11.88 7 18 C14.26 18 21.52 18 29 18 C29 12.06 29 6.12 29 0 C31.31 0 33.62 0 36 0 C36 14.85 36 29.7 36 45 C33.69 45 31.38 45 29 45 C29 38.4 29 31.8 29 25 C21.74 25 14.48 25 7 25 C7 31.6 7 38.2 7 45 C4.69 45 2.38 45 0 45 C0 30.15 0 15.3 0 0 Z " fill="#215EAC" transform="translate(427,318)"/>
<path d="M0 0 C9.9 0 19.8 0 30 0 C30 1.98 30 3.96 30 6 C22.41 6 14.82 6 7 6 C7 9.96 7 13.92 7 18 C13.6 18 20.2 18 27 18 C27 20.31 27 22.62 27 25 C20.4 25 13.8 25 7 25 C7 29.62 7 34.24 7 39 C14.59 39 22.18 39 30 39 C30 40.98 30 42.96 30 45 C20.1 45 10.2 45 0 45 C0 30.15 0 15.3 0 0 Z " fill="#215EAC" transform="translate(861,318)"/>
<path d="M0 0 C9.57 0 19.14 0 29 0 C29 1.98 29 3.96 29 6 C21.74 6 14.48 6 7 6 C7 9.96 7 13.92 7 18 C8.43214844 17.98839844 9.86429688 17.97679687 11.33984375 17.96484375 C13.20572787 17.95546745 15.07161339 17.94636708 16.9375 17.9375 C17.88302734 17.92912109 18.82855469 17.92074219 19.80273438 17.91210938 C21.15141602 17.90727539 21.15141602 17.90727539 22.52734375 17.90234375 C23.77632446 17.89448853 23.77632446 17.89448853 25.05053711 17.88647461 C27 18 27 18 28 19 C28 20.98 28 22.96 28 25 C21.07 25 14.14 25 7 25 C7 29.62 7 34.24 7 39 C14.59 39 22.18 39 30 39 C30 40.98 30 42.96 30 45 C20.1 45 10.2 45 0 45 C0 30.15 0 15.3 0 0 Z " fill="#215EAC" transform="translate(624,318)"/>
<path d="M0 0 C1.98 0 3.96 0 6 0 C8.74346981 5.38782365 11.2922909 10.81012207 13.671875 16.3671875 C13.99915588 17.12798615 14.32643677 17.88878479 14.66363525 18.67263794 C15.34712762 20.2636565 16.02938682 21.85520536 16.71044922 23.44726562 C17.75695964 25.89125333 18.80992701 28.33239293 19.86328125 30.7734375 C20.52903654 32.32535328 21.19441494 33.87743081 21.859375 35.4296875 C22.33271271 36.5249324 22.33271271 36.5249324 22.81561279 37.64230347 C25 42.77076822 25 42.77076822 25 45 C22.36 45 19.72 45 17 45 C15.68 41.7 14.36 38.4 13 35 C6.07 34.67 -0.86 34.34 -8 34 C-8.99 37.3 -9.98 40.6 -11 44 C-12 45 -12 45 -15.5625 45.0625 C-16.696875 45.041875 -17.83125 45.02125 -19 45 C-18.32508696 40.20487546 -16.44817162 36.14858249 -14.47265625 31.77734375 C-14.12367783 30.99484756 -13.7746994 30.21235138 -13.41514587 29.40614319 C-12.30236783 26.91442958 -11.18243498 24.42600371 -10.0625 21.9375 C-9.31270186 20.25996632 -8.5633481 18.58223394 -7.81445312 16.90429688 C-1.9104539 3.70176902 -1.9104539 3.70176902 0 0 Z M2 10 C-0.31 15.94 -2.62 21.88 -5 28 C-0.05 28 4.9 28 10 28 C8.20762152 21.54743746 6.16695855 15.89709524 3 10 C2.67 10 2.34 10 2 10 Z " fill="#215EAC" transform="translate(753,318)"/>
<path d="M0 0 C3.8304791 2.21908326 3.8304791 2.21908326 5.44140625 4.01953125 C5.44140625 5.33953125 5.44140625 6.65953125 5.44140625 8.01953125 C3.79140625 8.67953125 2.14140625 9.33953125 0.44140625 10.01953125 C-0.23921875 9.30796875 -0.23921875 9.30796875 -0.93359375 8.58203125 C-3.52690122 6.08846637 -4.57337638 6.01854574 -8.30859375 5.76953125 C-12.42434797 5.85154809 -15.12792093 6.60246631 -18.55859375 9.01953125 C-22.49146519 13.98736886 -23.20083082 18.06791165 -22.94140625 24.36328125 C-22.33884511 28.54431773 -21.19694126 30.68688176 -18.55859375 34.01953125 C-14.66219 36.7647248 -11.19601603 37.54797685 -6.51953125 37.38671875 C-3.29701034 36.7832985 -1.092141 35.01017552 1.44140625 33.01953125 C2.10140625 32.68953125 2.76140625 32.35953125 3.44140625 32.01953125 C4.76140625 33.00953125 6.08140625 33.99953125 7.44140625 35.01953125 C5.94539665 38.8275557 3.78077474 40.71377682 0.44140625 43.01953125 C-5.67586023 44.99788126 -12.97794375 45.11405842 -18.87109375 42.45703125 C-23.92450249 39.52045081 -27.33839783 35.45992309 -29.93359375 30.26953125 C-31.36168865 22.84343779 -31.76257155 14.61782753 -27.55859375 8.01953125 C-20.25797562 0.02361615 -10.70528561 -4.10233082 0 0 Z " fill="#215EAC" transform="translate(706.55859375,318.98046875)"/>
<path d="M0 0 C3.459012 2.91285221 4.85325015 4.72816793 5.375 9.25 C4.88072704 14.19272958 3.46171699 15.53828301 0 19 C-3.10953379 20.5547669 -5.56266761 20.28644437 -9 20 C-12.05992005 18.38343846 -14.24119476 16.9237629 -16.4375 14.25 C-17.3308826 10.67646959 -17.19108463 7.45003823 -16 4 C-11.24456144 -1.80903872 -6.8306529 -2.51655633 0 0 Z " fill="#000000" transform="translate(818,23)"/>
<path d="M0 0 C1.32 0 2.64 0 4 0 C4.99 1.98 5.98 3.96 7 6 C7.99 4.02 8.98 2.04 10 0 C11.65 0 13.3 0 15 0 C15 4.29 15 8.58 15 13 C13.68 13 12.36 13 11 13 C10.67 12.01 10.34 11.02 10 10 C9.01 11.485 9.01 11.485 8 13 C7.01 12.67 6.02 12.34 5 12 C4.67 11.01 4.34 10.02 4 9 C3.67 10.32 3.34 11.64 3 13 C2.01 13 1.02 13 0 13 C0 8.71 0 4.42 0 0 Z M11 5 C12 7 12 7 12 7 Z " fill="#121212" transform="translate(910,178)"/>
<path d="M0 0 C0 0.99 0 1.98 0 3 C-2.97 2.505 -2.97 2.505 -6 2 C-6 2.66 -6 3.32 -6 4 C-5.030625 4.2475 -4.06125 4.495 -3.0625 4.75 C0 6 0 6 1.0625 7.9375 C1 10 1 10 0 11.8125 C-3.09478096 13.6500262 -5.59615163 12.7064591 -9 12 C-9 11.01 -9 10.02 -9 9 C-7.02 9 -5.04 9 -3 9 C-4.98 7.68 -6.96 6.36 -9 5 C-8.625 2.5625 -8.625 2.5625 -8 0 C-5.13822943 -1.43088528 -3.06624227 -0.59991697 0 0 Z " fill="#000000" transform="translate(908,178)"/>
<path d="M0 0 C0 1.98 0 3.96 0 6 C-4.95 6 -9.9 6 -15 6 C-10.11178734 2.3338405 -6.18134841 0 0 0 Z " fill="#171516" transform="translate(821,244)"/>
</svg>
